<?xml version="1.0" encoding="UTF-8"?>
<svg id="Layer_1" xmlns="http://www.w3.org/2000/svg" version="1.1" viewBox="0 0 1080 1080">
  <!-- Generator: Adobe Illustrator 29.4.0, SVG Export Plug-In . SVG Version: 2.1.0 Build 152)  -->
  <defs>
    <style>
      .st0, .st1 {
        fill: #1a5689;
      }

      .st1 {
        fill-rule: evenodd;
      }
    </style>
  </defs>
  <path class="st1" d="M325.48,525.41c0,4.16,3.43,3.16,10.35,3.12,5.71-.02,17.48,1.84,22.72,3.03,3.15.71,7.44,2.02,9.91,3.25,3.84,1.9,8.6,4.4,11.69,7.46,3.55,3.53,2.19,1.66,6.27,6.59.95,1.17,1.85,2.62,2.68,3.89,1.54,2.41,3.36,6.13,4.06,9.12,2.53,10.79-3.31,41.09,24.72,52.76,12.08,5.03,23.3,6.12,36.48,3.91,13.47-2.26,1.09-7.85,8.58-15.89.63-.68,1.34-1.2,1.87-1.9,2.26-2.98.6-4.57.26-6.02,1.92-2.87,1.26-1.46,1.26-5.01,2.58-.22,3.14-2.06,3.14-4.08,0-1-.87-2.4-1.26-3.14,3.45,0,8.24-.33,10.72-1.21,4.05-1.44,5.29-4.26,5.29-8.2,0-.58-1.53-2.58-1.87-3.14-.68-1.12-1.22-1.95-1.97-3.06l-10.09-15.63c-.8-1.19-1.43-2.06-2.07-3.26,2.92-.24,5.64-2.5,5.64-6.27,0-3.14-1.41,2.82-8.16,1.26.6-2.23,5.34-6.12,5.34-23.21,0-5.32-.68-10.84-1.6-15.36-1.67-8.33-5.66-16.97-10.86-23.33l-3.93-4.54c-2.99-3.38-1.95-1.9-4.4-4.38-10.54-10.72-33.61-19.52-49.18-19.52-13.02,0-23.81,1.38-34.41,6.68-2.04,1.02-3.89,1.82-5.81,2.98-8.41,5.08-13,9.07-19.47,16.29-9.84,11.03-15.9,31.52-15.9,46.83ZM462.25,540.16l-26.33.02c-.99.17-1.89,1.04-1.89,2.17,0,1.63,7.71,6.47,9.34,7.58l7.55,5.32c.75.56,2.24,1.16,2.24,2.16v16.31c0,4.45-6.3,6.34-10.4,7.8-8.48,3.06-8.9,6.08-10.94,7.58-2.65-1.41-4.08-2.72-5.86-5.12-1.02-1.36-3.5-5.47-3.55-7.44,3.82-1.02,7.09-8.65,2.3-13.58-5.42-5.59-15.46-2.26-15.46,6.05,0,7.58,7.41,8.53,8.1,8.83.92.43.68.5,1.14,1.68,2.41,6.22,6.23,10.86,12.08,13.95-.71,3.09-.3,16.26-.3,20.39-4.3-.1-13.18-4.32-16.8-6.73-11.47-7.63-13.76-19.42-14.87-32.81-.75-9.09.87-10.66-3.57-20.27-2.34-5.12-7.32-11.41-11.55-14.8-2.08-1.68-2.04-1.97-5.08-4.01-8.31-5.5-15.49-7.73-26.23-9.53-4.69-.78-11.25-1.5-16.33-1.55-1.94-.03-3.28-.34-5.62-.34,0-13.45,4.82-28.02,12.1-39.01,3.41-5.15,7.61-8.97,12.28-12.81,18.66-15.32,45.91-18.88,68.82-10.64,7.93,2.85,15.26,6.98,21.71,12.18,4.59,3.7,4.25,3.96,7.49,7.24,4.5,4.52,8.56,12.23,10.86,18.32.87,2.26,1.43,5.4,1.85,7.88.43,2.55,1.04,5.98,1.04,8.68,0,1.99.19,2.94.29,4.44.17,2.38-.88,10.5-1.54,13.15-.92,3.6-2.57,5.73-2.84,6.88v.02ZM443.74,544.55h15.06c1.33,2.5,1.41,3.77-.85,5.72-3.91,3.38-4.47,1.16-9-1.83-1.12-.75-4.62-3.09-5.2-3.89ZM417.71,564.63c6.59,0,6,8.79.3,8.79-2.34,0-4.13-2.14-4.32-4.15-.2-2.28,1.82-4.64,4.01-4.64ZM463.2,581.88c0,2.01.49,2.17,1.56,3.77-.63.32-1.73.75-2.26,1.19-2.16,1.8-.66,3.68-.56,4.75-2.62.07-4.99.63-8.48.63-5.98,0-14.75.46-19.76-2.19,1.29-4.82,12.25-7.63,16.96-10.03,4.69-2.41,4.06-5.54,4.06-9.43v-13.79c2.91-.68,8.53-3.89,8.78-6.9,1.29.34,2.09,2.51,3.38,4.45l12.81,19.83c.88,4.11-9.38,3.65-12.03,4.02-1.92.27-4.47,1.41-4.47,3.69ZM456.28,613.57c-2.46,1.17-11.83,1.57-15.68,1.57-3.25,0-5.64-.63-8.47-.63v-20.08c1.19.1.68.13,1.72.47,6.42,2.13,17.16,2.5,23.96,1.68,1.12-.13,2.77-.88,3.35.56.48,1.22-1.02,2.01-1.66,2.7-5.35,5.68-3.21,9.9-3.21,13.73Z"/>
  <path class="st1" d="M40,587.21c0,9.92,9.33,18.83,20.08,18.83,6.46,0,12.54.61,18.47-1.61,1.17-.44,2.16-1.04,3.28-1.74,1.12-.7,1.97-1.6,3.03-2.31,4.48,3.01,6.89,5.66,14.75,5.66,10.47,0,16.13,1.12,23.98-5.52,3.09-2.61,6.13-8.02,6.13-13.63v-38.57h-11.28v36.38c0,12.03-10.45,10.04-19.13,10.04-4.67,0-8.79-3.77-8.79-8.48v-37.94h-11.3v38.57c0,4.28-4.2,7.85-8.79,7.85-7.03,0-15.96,1.36-18.49-5.35-.71-1.92-.43-32.06-.32-38.27.07-3.69,1.31-2.81-11.62-2.81v38.9Z"/>
  <path class="st1" d="M246.42,549.25v35.14c0,6,1.34,11.27,5.42,15.29,3.88,3.84,8.65,6.36,14.66,6.36h18.2c3.28,0,6.88-.84,9.09-1.89,0,4.38.29,6.54-2.38,9.23-.03.05-.1.12-.15.15-1.61,1.57-3.33,2.53-5.93,2.53h-30.75v11.3h31.06c10.11,0,19.45-8.73,19.45-18.2v-60.85h-11.3v38.57c0,4.28-4.2,7.85-8.79,7.85h-18.2c-4.51,0-8.79-3.6-8.79-7.53v-38.9h-10.65c-.73,0-.95.2-.95.94Z"/>
  <path class="st1" d="M219.45,549.88c-1.85-.16-3.98-1.57-7.54-1.57h-20.39c-2.46,0-5.74.99-7.61,1.78-3.23,1.34-5.88,3.78-7.93,6.49-2.23,2.94-3.58,6.81-3.58,10.86v19.76c0,9.96,9.36,18.83,20.08,18.83h18.5c10.75,0,20.08-8.66,20.08-19.46v-58.05c0-.71-.22-.93-.95-.93-12.66,0-10.67-1.1-10.65,4.71v17.57ZM183.99,587.52v-20.7c0-3.58,4.25-7.22,7.85-7.22h19.76c3.3,0,7.85,3.6,7.85,6.59v21.65c0,1.72-1.84,4.05-2.96,4.89-1.67,1.26-3.36,2.01-6.15,2.01h-17.25c-4.71,0-9.1-3.23-9.1-7.22Z"/>
  <path class="st1" d="M320.45,567.13v20.39c0,9.9,9.36,18.52,20.08,18.52h18.5v-11.3h-18.5c-2.62,0-4.84-1.22-6.2-2.58-1.7-1.68-2.58-3.25-2.58-6.51v-17.57c0-4.84,4.49-8.48,8.16-8.48h19.14c4.16,0,8.48,3.52,8.48,7.53v38.91h10.65c.73,0,.95-.22.95-.95v-36.38c0-8.65-4.18-14.83-11.61-18.52-2.09-1.04-5.05-1.87-8.16-1.87h-19.78c-9.55,0-19.13,8.38-19.13,18.81Z"/>
  <path class="st1" d="M660.51,519.45v69.65c0,5.39,2.92,10.04,5.73,12.78,3.08,3.02,7.73,5.1,13.73,5.1h32.3c7.61,0,14.22-3.18,17.79-9.82.94-1.75,1.99-4.88,1.99-7.43v-25.1c0-9.06-8.4-17.27-19.15-17.27h-45.16v-27.91c0-5.07-7.23-5.59-7.23,0ZM713.85,599.75h-34.83c-6.2,0-11.28-4.77-11.28-10.34v-34.82h46.11c6.46,0,11.28,4.82,11.28,11.28v22.6c0,4.69-2.43,8.41-6.58,10.35-1.15.56-2.95.93-4.71.93Z"/>
  <path class="st1" d="M968.25,563.37c0,10.48,8.46,16.5,17.91,17.23,3.98.32,28.8.03,33.86.02,4.23-.02,6.37.58,8.87,2.41,5.15,3.79,5.45,9.62.13,14.12-1.88,1.61-4.62,2.63-8.05,2.61l-48.02-.03c-6.51.03-5.62,7.24-.31,7.24h46.74c16.83,0,24.95-14.17,18.27-24.86-1.12-1.78-2.31-2.92-3.91-4.25-5.55-4.58-12.06-4.45-19.69-4.45h-16.01c-4.72,0-11.79.64-15.41-.6-12.01-4.09-8.07-17.08,2.28-18.2,2.85-.3,40.71-.08,47.97-.03,9,.07,6.24-7.23,2.5-7.23h-49.24c-4.78,0-8.83,2.11-12.2,4.74-2.72,2.14-5.69,6.46-5.69,11.27Z"/>
  <path class="st1" d="M572.36,564.63v25.1c0,2.55,1.02,5.49,1.9,7.19,3.55,6.85,10.16,10.06,17.86,10.06h40.17c5.1,0,9.02-1.36,12.64-4.3.54-.44.92-.61,1.4-1.11l2.09-2.61c.78-1.12,1.31-1.89,1.8-3.23.85-2.4,1.51-4.86,1.51-8.21v-21.02c0-5.68-2.04-10.38-4.93-13.25-3.28-3.26-7.44-5.88-12.64-5.88h-43.91c-2.8,0-5.29.72-7.22,1.58-.95.41-2.04.97-2.82,1.54-4.42,3.21-7.85,8.38-7.85,14.14ZM633.22,599.75h-42.97c-5.33,0-10.67-4.72-10.67-10.02v-25.73c0-4.28,4.86-9.41,10.04-9.41h45.16c4.47,0,9.74,5.05,9.74,10.67v23.21c0,6.46-4.85,11.28-11.3,11.28Z"/>
  <path class="st1" d="M743.65,564.31v25.42c0,5.35,2.74,9.21,6.03,12.47,3.06,3.02,7.7,4.78,13.73,4.78h40.15c5.15,0,9.21-1.36,12.8-4.45l2.5-2.53c.46-.51.71-.81,1.09-1.41,2.26-3.62,3.08-7.31,3.08-12v-18.5c0-6.49-1.55-11.03-4.64-14.51-2.55-2.87-7.64-6.2-12.93-6.2h-44.55c-8.65,0-17.25,8.23-17.25,16.94ZM750.55,587.52v-20.7c0-3.62,1-6.59,2.74-8.55,1.56-1.75,4.43-3.68,7.61-3.68h45.18c4.69,0,9.72,5.08,9.72,11.28v22.28c0,3.44-1.38,6.41-3.06,8.24-1.89,2.06-5.13,3.36-8.24,3.36h-42.67c-6.86,0-11.28-5.23-11.28-12.23Z"/>
  <path class="st1" d="M891.09,565.56v23.53c0,9.74,8.31,17.88,19.44,17.88h46.12c4.58,0,5.59-4.86,2.85-6.61-1.07-.68-2.3-.61-4.1-.61-7.32.05-44.96.36-47.83-.15-5.29-.95-9.27-5.35-9.27-10.19v-24.47c0-5.03,4.33-9.33,8.6-10.23,2.19-.46,40.29-.13,47.25-.12,3.64,0,6.9.29,6.9-4.08,0-1.97-1.73-3.14-3.77-3.14h-48.61c-9.23,0-17.57,8.36-17.57,18.2Z"/>
  <path class="st1" d="M831.79,518.52v71.84c0,2.4,1.17,5.35,2.11,7,1.29,2.31,2.33,3.23,4.09,4.99,5.49,5.54,14.62,4.62,22.67,4.62,1.12,0,2.64-.26,3.35-.73,1.65-1.1,2.28-5.12-.78-6.24-2.02-.75-11.14.34-15.26-.41-5.29-.97-9.26-5.37-9.26-11.45v-33.88h23.21c4.48,0,4.45-6.9.31-6.9h-23.52v-28.54c0-2.43-2.92-4.64-5.72-2.58-.68.5-1.19,1.19-1.19,2.28Z"/>
  <path class="st1" d="M499.91,563.37v40.46c0,2.51,3.04,3.82,5.22,2.41,2.07-1.36,1.68-4.2,1.68-7.43,0-4.83-.34-34.14.12-36.26.53-2.47,1.87-4.28,3.4-5.71,1.31-1.2,4.06-2.58,6.52-2.58h31.67c5.96,0,9.58,4.68,10.3,10.42.71,5.79,6.64,3.86,6.64.58,0-10.37-8.04-17.9-16.94-17.9h-31.67c-4.74,0-9,2.45-11.54,4.78-2.81,2.6-5.4,7.37-5.4,11.23Z"/>
  <path class="st1" d="M348.06,499.06c0,8.61,4.57,13.76,11.18,17.04,3.38,1.68,5.67,2.7,10,3.48,13.8,2.48,22.48.07,31.44,9.04,4.95,4.96,9.13,8.09,18.9,8.09,3.92,0,8.93-.88,11.88-1.94,25.06-8.97,21.92-39.49,3.01-53.75-17.73-13.35-48.85-15.19-67.59-5.81-8.06,4.02-18.81,13.79-18.81,23.84ZM351.21,500.95c0-5.76,2.06-9.3,5.37-13.76,4.86-6.54,13.9-11.1,21.85-12.97,9.47-2.24,16.52-1.94,26.08-1.17,13.73,1.1,28.24,7.49,36.23,18.98,7.14,10.3,8.24,27.07-1.97,35.33-7.31,5.91-21.45,8.53-30.06,3.92-3.26-1.75-4.23-3.74-6.82-5.72-2.41-1.87-3.77-3.72-7.44-5.12-10.79-4.09-28.92-.68-39.25-10.94-1.94-1.92-3.99-4.88-3.99-8.54Z"/>
  <rect class="st0" x="145.4" y="548.32" width="11.3" height="57.72"/>
  <path class="st1" d="M375.04,484.94c0,2.7,1.82,3.77,4.38,3.77.29,1.24,1.36,3.25,1.89,4.4,2.33,5.2-.41,4.06,14.12,4.06v3.15c-15.29,0-10.89-.98-15.29,2.91-1.26,1.09-2.27,1.65-3.23,3.06-5.98-1.39-6.46,3.69-4.62,5.56,2.38,2.44,8.02.49,5.57-4.62,8.89-5.95-1.07-5.34,17.87-5.34.1,4.57,5.58,9.28,10.98,9.74v7.2c1.27.3,3.51,1.6,4.71,2.19,1.6.8,3.12,1.77,5.03,2.21,0,7.03,6.9,4.89,6.9,1.56,0-3.75-2.68-4.88-5.13-3.53-1.32.71-.54,1.02-4.28-.87-.99-.49-1.85-.92-2.92-1.46-3.33-1.64-2.72-.3-2.72-7.3,5.79-.14,11.61-5.37,11.61-11.3h6.27c.29,1.05,4.32,6.49,5.02,7.53-3.69,6.96,6.29,7.92,6.29,2.51,0-1.09-.68-2.21-1.37-2.72-.99-.75-1.99-.73-3.65-.73-.44-.85-5.23-8.48-6.27-8.48h-6.27c0-3.08-1.07-3.51-1.58-5.64l3.21-3.38c.26.09,1.39.56,1.82.56,5.29,0,4.61-7.22.3-7.22-1.22,0-2.65,1.02-3.14,1.89-.92,1.61-.37,2.09.01,3.75-.78.53-.97.85-1.64,1.5-.65.61-1.12.87-1.8,1.32-2.62-1.73-4.37-4.08-9.42-4.08-4.11,0-8.02,2.17-9.99,5.08-.68,1.02-1.5,1.95-1.62,3.4h-11.93c-.2-.88-1.15-2.96-1.56-3.77-.68-1.36-1.17-2.92-1.89-3.75.8-1.21,1.87-2.02,1.34-3.82-1.27-4.27-6.99-3.08-6.99.68ZM376.61,484.94c.98-1.87,1.05-1.82,3.45-1.26.51,2.16.66,3.14-1.89,3.14-1.24,0-1.22-1.14-1.56-1.89ZM421.79,486.52c0-.85.13-.87.3-1.58,4.86-1.12,3.91,3.15,1.56,3.15-.85,0-.87-.16-1.56-.33-.2-.83-.3-.57-.3-1.24ZM399.82,499.36c0-2.31,1.04-4.42,2.27-5.55,7.99-7.22,18.22,4.08,11.15,11.14-2.79,2.81-7.8,3.01-11.15-.01-1.24-1.12-2.27-3.25-2.27-5.56v-.02ZM374.72,511.29c-2.01,0-2.29-3.76.32-3.76,2.3,0,2.81,3.76-.32,3.76ZM435.26,511.92c-1.78.43-.64.51-2.82,0-1.07-4.61,2.44-3.79,3.18-2.21.34.75.09,1.41-.36,2.21ZM418.02,524.46c0-1.12.39-1.6,1.23-1.92.81-.32,1.37-.05,2.22.36,1.09,4.66-3.45,3.31-3.45,1.57Z"/>
  <path class="st1" d="M873.2,550.81v52.08c0,5.61,7.22,4.78,7.22.3v-51.76c0-5.57-7.22-5.06-7.22-.63Z"/>
  <rect class="st0" x="145.4" y="527.3" width="11.3" height="11.61"/>
  <path class="st1" d="M873.2,536.09v3.75c0,5.23,7.22,5.3,7.22-.3,0-2.09.36-6.92-3.45-6.92-2.04,0-3.77,1.44-3.77,3.47Z"/>
</svg>