<?xml version="1.0" encoding="UTF-8"?>
<svg id="Layer_1" xmlns="http://www.w3.org/2000/svg" version="1.1" viewBox="0 0 1080 1080">
  <!-- Generator: Adobe Illustrator 29.4.0, SVG Export Plug-In . SVG Version: 2.1.0 Build 152)  -->
  <defs>
    <style>
      .st0 {
        fill: #1f5488;
        font-family: FoxontheRun, 'Fox on the Run';
        font-size: 152.57px;
      }

      .st1 {
        fill: #bc202e;
        fill-rule: evenodd;
      }
    </style>
  </defs>
  <path class="st1" d="M1007.63,550.99l.03,13.9,7.05.11.1-14.06c24.09-3.26,28.51,3.64,27.51-36.81l-7.35.03c-.52,26.72,4.75,29.03-23.73,29-28.07-.04-23.37-1.86-23.7-29l-5.92-.03c-.63,1.18-.35-.41-.91,2.72-1.09,6.14-.55,21.98,1.87,26.36,4.87,8.77,13.65,6.03,25.05,7.8v-.02Z"/>
  <polygon class="st1" points="910.48 521.07 960.77 521.32 964.06 521.29 966.25 521.29 972.74 521.19 972.79 514.31 910.47 514.12 910.48 521.07"/>
  <path class="st1" d="M896.45,564.79l7.23.24c.11-9.62,1.23-44.01-.58-51.03l-6.65.23v50.56Z"/>
  <polygon class="st1" points="938 564.87 945.44 564.95 945.45 528.56 937.9 528.89 938.02 564.87 938 564.87"/>
  <g>
    <path class="st1" d="M409.87,495.81c-.39,15.26-.08,30.86-.08,46.15,0,32.26-3.65,39.74,29.8,62.65,32.53,22.3,23.37,22.17,56.46-.77,32.25-22.33,29.08-28.59,29.07-62.98,0-14.83.31-29.98-.08-44.78-9.32-2.81-53.41-18.63-57.87-18.53-4.61.09-46.81,16.01-57.31,18.26ZM466,503.2l.1,24.34,55.82.11.03,14.41-46.32.06c-3.87-10.81-15.97-7.89-16.47,1-.54,9.67,12.5,13.13,16.53,2.2h46.21l.03,13.26-32.32.11-.25,16.53c-10.34,4.28-8.27,15.84.83,16.35,8.72.49,14.5-10.85,2.39-16.77l.02-12.69,29.12-.19c1.89,16.7-11.2,27.19-19.61,33.66-7.24,5.57-24.26,18.29-33.14,21.62v-42.32c.91-3.37,6.8-2.75,6.74-9.86-.09-10.63-15.47-11.49-16.47-1.02-.77,8.24,4.26,6.27,6.75,10.88l-.02,42.74c-8.07-3.32-26.5-16.71-32.98-21.75-9.9-7.68-20.34-15.9-20.34-34.15l.06-63.14c8.64-2.72,49.85-17.6,54.49-17.68,5.91-.11,44.12,14.89,54.7,17.35l-.09,9.26h-20.67c-4.53-1.53-2.83-5.97-9.12-6.84-10.93-1.51-13.04,15.92-1.67,16.76,8.13.58,6.13-6.74,12.98-6.72l18.69.03-.05,13.72-52.95.04c-.06-4.52-1.04-17.18.64-20.42,1.75-3.4,9.39-5.37,5.12-13.56-6.77-12.99-26.56,6.88-8.77,12.69ZM462.79,498.1c-1.5-10.69,7.26-9.43,9.12-5.86,3.24,6.2-2.8,9.57-9.12,5.86ZM489.18,504.5c6.9-2.97,9.83,7.04,3.59,9.45-2.68,1.04-5.68-.31-6.61-3.12-1.46-4.43.8-5.39,3.02-6.33ZM463.44,539.41c5.02-2.98,12.64,2.61,7.82,7.76-4.03,4.33-10.93,1.29-7.82-7.76ZM465.72,570.32c-1.75-1.62-3.98-2.96-3.48-6.03.44-2.6,2.83-4.78,5.81-4.47,5.04.57,8.19,9.65-2.33,10.5ZM495.59,585.85c-3.1,5.24-12.41,2.16-9.21-4.87,2.96-6.49,12.61-.85,9.21,4.87Z"/>
    <path class="st1" d="M550.51,550.5c1.37,19.07,16.6,14.48,43.88,14.55,10.03.02,16.86-1.54,18.22-11.54,1.34-9.95-2.46-15.72-10.33-17.32-11.75-2.39-37.48,1.56-42.01-1.87-2.82-2.12-2.83-7.97-.68-10.66,3.26-4.08,20.69-2.35,27.1-2.36,11.27,0,14.41-1.43,17.88,3.83,2.19,3.32-1.95,3.81,8.19,3.39-.66-16.93-11.7-14.38-27.16-14.39-12.58-.02-29.68-2.9-33.79,7.23-2.19,5.37-1.7,12.55,1.32,16.88,8.23,11.76,47.18-1.07,51.58,8.8,6.65,14.83-21.07,10.49-27.9,10.49-8.17,0-14.39,1.51-17.41-2.49l-2.33-4.52h-6.57Z"/>
    <path class="st1" d="M827.44,564.49l7.05.55c.63-44.56-5.56-43.69,26.45-43.76,8.94-.01,18.93-1.79,20.8,7.67,3.62,18.23-18.06,14.22-39.44,14.18l-.1,7.42c31.44.16,39.76-4.12,39.85,14.16l7.34.31c.16-9.87-.41-12.75-5.01-18.34,6.28-6.66,12.49-32.55-14.68-32.58-46.27-.02-43.03-3.04-42.28,50.39Z"/>
    <path class="st1" d="M744.66,546.94c-6.22,11.24,3.13,10.52-28.53,10.56-18.3.02-19.63-.17-19.62-18.85,0-17.74,3.84-17.41,20.72-17.37,28.34.1,21.62-.5,27.43,10.75l6.66.02c-.14-21.29-16.32-17.95-35.19-17.95-24.31-.02-26.61,2.52-26.66,26.77-.05,24.12,6.09,24.15,28.86,24.14,16.3-.02,35.88,1.48,32.56-18.23l-6.24.16Z"/>
    <path class="st1" d="M682.09,557.52c-12.39-.13-24.88-.06-37.27-.02-17.2.09-17.35-2.06-17.35-18.85.02-22.91,7.9-16.99,54.89-17.4l-.05-7.09c-14.2-.33-29.93-.47-44.1-.06-17.2.49-17.67,9.38-17.7,25.66-.06,30.58,8.77,25.81,61.87,25.18l-.28-7.43Z"/>
    <path class="st1" d="M758.53,514.19c-.11,7.72-.94,35.77,1.14,41.28,4.42,11.68,17.76,9.52,31.07,9.54,14.12,0,26.03,1.29,29.11-11.48,1.25-5.12,1.29-34.4-.08-39.5l-6.3.2c-1.78,8.52.22,23.76-.5,33.29-.99,13.16-12.06,9.98-24.42,9.98-27.79,0-22.46-.06-22.96-36.43l-1.18-6.96-5.87.08Z"/>
    <polygon class="st1" points="634.82 543.21 682.36 543.28 682.17 535.68 635.17 535.62 634.82 543.21"/>
    <text class="st0" transform="translate(37.55 574.07)"><tspan x="0" y="0">widya</tspan></text>
  </g>
</svg>